name ./resultDataOpenSim/trcMotMarkerGrf/sub10/grf-12-03.mot
datacolumns 19
datarows 30
range 1.39600000 1.51200000
endheader

                time	     ground_force_vx	     ground_force_vy	     ground_force_vz	     ground_force_px	     ground_force_py	     ground_force_pz	   l_ground_force_vx	   l_ground_force_vy	   l_ground_force_vz	   l_ground_force_px	   l_ground_force_py	   l_ground_force_pz	     ground_torque_x	     ground_torque_y	     ground_torque_z	   l_ground_torque_x	   l_ground_torque_y	   l_ground_torque_z	
          1.39600000	        -36.98438285	        401.32947394	        -24.94570448	          0.87566556	          0.00000000	          0.05411797	          0.00000000	          0.00000000	          0.00000000	          0.00000000	          0.00000000	          0.00000000	          0.00000000	          1.52637726	          0.00000000	          0.00000000	          0.00000000	          0.00000000	
          1.40000000	        -33.96477429	        398.94493960	        -24.20480827	          0.87579855	          0.00000000	          0.05360318	          0.00000000	          0.00000000	          0.00000000	          0.00000000	          0.00000000	          0.00000000	          0.00000000	          1.67107448	          0.00000000	          0.00000000	          0.00000000	          0.00000000	
          1.40400000	        -30.86229824	        397.10880134	        -23.17406261	          0.87587412	          0.00000000	          0.05307887	          0.00000000	          0.00000000	          0.00000000	          0.00000000	          0.00000000	          0.00000000	          0.00000000	          1.81697556	          0.00000000	          0.00000000	          0.00000000	          0.00000000	
          1.40800000	        -27.99739587	        395.87280102	        -21.90349502	          0.87595988	          0.00000000	          0.05254565	          0.00000000	          0.00000000	          0.00000000	          0.00000000	          0.00000000	          0.00000000	          0.00000000	          1.96795103	          0.00000000	          0.00000000	          0.00000000	          0.00000000	
          1.41200000	        -25.61136119	        395.26718762	        -20.50668325	          0.87608337	          0.00000000	          0.05199897	          0.00000000	          0.00000000	          0.00000000	          0.00000000	          0.00000000	          0.00000000	          0.00000000	          2.12588157	          0.00000000	          0.00000000	          0.00000000	          0.00000000	
          1.41600000	        -23.80707320	        395.30193548	        -19.13149177	          0.87626464	          0.00000000	          0.05143447	          0.00000000	          0.00000000	          0.00000000	          0.00000000	          0.00000000	          0.00000000	          0.00000000	          2.29036354	          0.00000000	          0.00000000	          0.00000000	          0.00000000	
          1.42000000	        -22.53537296	        395.94005287	        -17.92609273	          0.87650599	          0.00000000	          0.05085359	          0.00000000	          0.00000000	          0.00000000	          0.00000000	          0.00000000	          0.00000000	          0.00000000	          2.45978478	          0.00000000	          0.00000000	          0.00000000	          0.00000000	
          1.42400000	        -21.61758125	        397.07047593	        -17.00967647	          0.87677777	          0.00000000	          0.05026662	          0.00000000	          0.00000000	          0.00000000	          0.00000000	          0.00000000	          0.00000000	          0.00000000	          2.63235679	          0.00000000	          0.00000000	          0.00000000	          0.00000000	
          1.42800000	        -20.79121972	        398.52500589	        -16.45451700	          0.87701879	          0.00000000	          0.04968754	          0.00000000	          0.00000000	          0.00000000	          0.00000000	          0.00000000	          0.00000000	          0.00000000	          2.80607846	          0.00000000	          0.00000000	          0.00000000	          0.00000000	
          1.43200000	        -19.77122270	        400.13140202	        -16.28348253	          0.87715376	          0.00000000	          0.04912803	          0.00000000	          0.00000000	          0.00000000	          0.00000000	          0.00000000	          0.00000000	          0.00000000	          2.97782922	          0.00000000	          0.00000000	          0.00000000	          0.00000000	
          1.43600000	        -18.31902457	        401.74775389	        -16.47857409	          0.87714173	          0.00000000	          0.04860411	          0.00000000	          0.00000000	          0.00000000	          0.00000000	          0.00000000	          0.00000000	          0.00000000	          3.14272131	          0.00000000	          0.00000000	          0.00000000	          0.00000000	
          1.44000000	        -16.30386683	        403.25569859	        -16.99202374	          0.87698050	          0.00000000	          0.04814004	          0.00000000	          0.00000000	          0.00000000	          0.00000000	          0.00000000	          0.00000000	          0.00000000	          3.29468930	          0.00000000	          0.00000000	          0.00000000	          0.00000000	
          1.44400000	        -13.73326669	        404.54123625	        -17.75602378	          0.87669595	          0.00000000	          0.04775858	          0.00000000	          0.00000000	          0.00000000	          0.00000000	          0.00000000	          0.00000000	          0.00000000	          3.42825795	          0.00000000	          0.00000000	          0.00000000	          0.00000000	
          1.44800000	        -10.73818883	        405.49881001	        -18.69221348	          0.87632327	          0.00000000	          0.04746835	          0.00000000	          0.00000000	          0.00000000	          0.00000000	          0.00000000	          0.00000000	          0.00000000	          3.54042333	          0.00000000	          0.00000000	          0.00000000	          0.00000000	
          1.45200000	         -7.52270610	        406.06478233	        -19.72410487	          0.87589306	          0.00000000	          0.04726197	          0.00000000	          0.00000000	          0.00000000	          0.00000000	          0.00000000	          0.00000000	          0.00000000	          3.63143307	          0.00000000	          0.00000000	          0.00000000	          0.00000000	
          1.45600000	         -4.29954796	        406.25316236	        -20.79376537	          0.87543659	          0.00000000	          0.04712173	          0.00000000	          0.00000000	          0.00000000	          0.00000000	          0.00000000	          0.00000000	          0.00000000	          3.70404808	          0.00000000	          0.00000000	          0.00000000	          0.00000000	
          1.46000000	         -1.22889200	        406.16507265	        -21.87663705	          0.87498426	          0.00000000	          0.04703079	          0.00000000	          0.00000000	          0.00000000	          0.00000000	          0.00000000	          0.00000000	          0.00000000	          3.76194510	          0.00000000	          0.00000000	          0.00000000	          0.00000000	
          1.46400000	          1.62372564	        405.97429528	        -22.98484755	          0.87454562	          0.00000000	          0.04698252	          0.00000000	          0.00000000	          0.00000000	          0.00000000	          0.00000000	          0.00000000	          0.00000000	          3.80845409	          0.00000000	          0.00000000	          0.00000000	          0.00000000	
          1.46800000	          4.29813333	        405.91626325	        -24.15622628	          0.87410396	          0.00000000	          0.04697577	          0.00000000	          0.00000000	          0.00000000	          0.00000000	          0.00000000	          0.00000000	          0.00000000	          3.84646239	          0.00000000	          0.00000000	          0.00000000	          0.00000000	
          1.47200000	          6.91559367	        406.28813206	        -25.43573926	          0.87363273	          0.00000000	          0.04700393	          0.00000000	          0.00000000	          0.00000000	          0.00000000	          0.00000000	          0.00000000	          0.00000000	          3.87935499	          0.00000000	          0.00000000	          0.00000000	          0.00000000	
          1.47600000	          9.62941918	        407.43701251	        -26.85971101	          0.87310816	          0.00000000	          0.04705373	          0.00000000	          0.00000000	          0.00000000	          0.00000000	          0.00000000	          0.00000000	          0.00000000	          3.91203403	          0.00000000	          0.00000000	          0.00000000	          0.00000000	
          1.48000000	         12.56913574	        409.73079621	        -28.44747890	          0.87252702	          0.00000000	          0.04710844	          0.00000000	          0.00000000	          0.00000000	          0.00000000	          0.00000000	          0.00000000	          0.00000000	          3.95101362	          0.00000000	          0.00000000	          0.00000000	          0.00000000	
          1.48400000	         15.79388619	        413.52429319	        -30.19819320	          0.87191508	          0.00000000	          0.04714718	          0.00000000	          0.00000000	          0.00000000	          0.00000000	          0.00000000	          0.00000000	          0.00000000	          4.00333755	          0.00000000	          0.00000000	          0.00000000	          0.00000000	
          1.48800000	         19.26663955	        419.11827937	        -32.09028080	          0.87130360	          0.00000000	          0.04714522	          0.00000000	          0.00000000	          0.00000000	          0.00000000	          0.00000000	          0.00000000	          0.00000000	          4.07500359	          0.00000000	          0.00000000	          0.00000000	          0.00000000	
          1.49200000	         22.85770739	        426.71299844	        -34.08235539	          0.87073583	          0.00000000	          0.04707555	          0.00000000	          0.00000000	          0.00000000	          0.00000000	          0.00000000	          0.00000000	          0.00000000	          4.16994185	          0.00000000	          0.00000000	          0.00000000	          0.00000000	
          1.49600000	         26.37612756	        436.37484083	        -36.11483015	          0.87026267	          0.00000000	          0.04691550	          0.00000000	          0.00000000	          0.00000000	          0.00000000	          0.00000000	          0.00000000	          0.00000000	          4.29008768	          0.00000000	          0.00000000	          0.00000000	          0.00000000	
          1.50000000	         29.62119437	        448.03407181	        -38.10939188	          0.86992522	          0.00000000	          0.04665680	          0.00000000	          0.00000000	          0.00000000	          0.00000000	          0.00000000	          0.00000000	          0.00000000	          4.43616655	          0.00000000	          0.00000000	          0.00000000	          0.00000000	
          1.50400000	         32.43761160	        461.52290851	        -39.96458603	          0.86974649	          0.00000000	          0.04630203	          0.00000000	          0.00000000	          0.00000000	          0.00000000	          0.00000000	          0.00000000	          0.00000000	          4.60829311	          0.00000000	          0.00000000	          0.00000000	          0.00000000	
          1.50800000	         34.75238933	        476.63700697	        -41.55865392	          0.86970739	          0.00000000	          0.04586682	          0.00000000	          0.00000000	          0.00000000	          0.00000000	          0.00000000	          0.00000000	          0.00000000	          4.80581330	          0.00000000	          0.00000000	          0.00000000	          0.00000000	
          1.51200000	         36.58897334	        493.17851549	        -42.77061094	          0.86977722	          0.00000000	          0.04535884	          0.00000000	          0.00000000	          0.00000000	          0.00000000	          0.00000000	          0.00000000	          0.00000000	          5.02663474	          0.00000000	          0.00000000	          0.00000000	          0.00000000	
